<?xml version="1.0" standalone="no"?>
<!DOCTYPE svg PUBLIC "-//W3C//DTD SVG 20010904//EN"
 "http://www.w3.org/TR/2001/REC-SVG-20010904/DTD/svg10.dtd">
<svg version="1.0" xmlns="http://www.w3.org/2000/svg"
 width="626.000000pt" height="626.000000pt" viewBox="0 0 626.000000 626.000000"
 preserveAspectRatio="xMidYMid meet">
<metadata>
Created by potrace 1.11, written by Peter Selinger 2001-2013
</metadata>
<g transform="translate(0.000000,626.000000) scale(0.100000,-0.100000)"
fill="#000000" stroke="none">
<path d="M3293 5033 l-33 -4 0 -1730 0 -1729 1128 0 c1266 0 1163 -6 1325 77
196 101 351 300 402 515 22 94 20 277 -5 374 -56 223 -214 413 -424 514 -78
37 -189 70 -234 70 -19 0 -22 5 -22 44 0 72 -40 284 -76 402 -106 350 -281
635 -552 895 -351 338 -783 530 -1276 569 -128 10 -171 10 -233 3z"/>
<path d="M2765 4936 c-227 -76 -426 -180 -618 -324 -162 -122 -370 -340 -462
-485 l-18 -29 509 5 c638 5 658 8 712 125 l27 57 3 348 c3 282 1 347 -10 347
-7 -1 -71 -20 -143 -44z"/>
<path d="M2082 3730 c-55 -11 -101 -44 -117 -84 -10 -24 -14 -126 -17 -401 -4
-504 -19 -479 296 -495 111 -5 258 -6 366 0 160 8 185 11 222 32 23 13 51 36
62 51 20 28 21 39 21 405 0 357 -1 379 -20 416 -11 22 -33 49 -48 60 -27 20
-42 21 -375 23 -191 1 -366 -3 -390 -7z"/>
<path d="M1204 3710 c-421 -48 -796 -308 -989 -686 -41 -79 -105 -255 -105
-286 0 -13 879 -4 1169 13 194 11 237 23 284 78 51 61 59 115 59 409 1 286 -4
328 -48 393 -41 60 -90 80 -202 84 -53 2 -129 0 -168 -5z"/>
<path d="M80 2347 c0 -47 33 -213 57 -286 51 -157 148 -328 247 -438 l48 -53
168 0 168 0 8 78 c13 127 8 428 -9 519 -19 102 -43 137 -116 172 -55 26 -60
26 -313 29 l-258 3 0 -24z"/>
<path d="M1505 2360 c-227 -9 -319 -22 -355 -48 -53 -39 -73 -101 -82 -266 -5
-83 -6 -224 -2 -314 l6 -162 922 2 921 3 6 245 c12 430 -10 492 -182 530 -66
15 -934 22 -1234 10z"/>
</g>
</svg>
